<?xml version="1.0" encoding="utf-8"?>
<!-- Generator: Adobe Illustrator 19.0.0, SVG Export Plug-In . SVG Version: 6.00 Build 0)  -->
<svg version="1.1" id="Layer_1" xmlns="http://www.w3.org/2000/svg" xmlns:xlink="http://www.w3.org/1999/xlink" x="0px" y="0px"
	 viewBox="0 0 2000 2000" style="enable-background:new 0 0 2000 2000;" xml:space="preserve">
<style type="text/css">
	.st0{fill:#FFFFFF;}
</style>
<g id="XMLID_22_">
	<g id="XMLID_21_">
		<path id="XMLID_4_" class="st0" d="M-1131,1016.8v-46.9h6.9v40.1h22.9v6.8H-1131z"/>
		<path id="XMLID_6_" class="st0" d="M-1093.2,1016.8v-46.9h29.8v6.9h-22.9v12.6h17.2v6.9h-17.2v13.7h22.9v6.8H-1093.2z"/>
		<path id="XMLID_8_" class="st0" d="M-1020,1016.8l-3.2-8.5h-21.9l-3.2,8.5h-7.2l17-46.9h8.7l17.1,46.9H-1020z M-1034.1,978
			l-8.5,23.3h17L-1034.1,978z"/>
		<path id="XMLID_24_" class="st0" d="M-963.6,993.3c0,6.5-2.3,12-6.9,16.6c-4.6,4.6-10.1,6.9-16.6,6.9h-17.8v-46.9h17.8
			c6.4,0,11.9,2.3,16.6,6.9C-965.9,981.4-963.6,986.9-963.6,993.3z M-970.5,993.3c0-4.5-1.6-8.5-4.9-11.7c-3.3-3.3-7.2-4.9-11.7-4.9
			H-998v33.3h10.9c4.5,0,8.5-1.6,11.7-4.9C-972.1,1001.8-970.5,997.9-970.5,993.3z"/>
		<path id="XMLID_27_" class="st0" d="M-952.7,1016.8v-6.8h6.9v6.8H-952.7z"/>
		<path id="XMLID_31_" class="st0" d="M-925.4,1016.8v-46.9h6.9v40.1h22.9v6.8H-925.4z"/>
		<path id="XMLID_35_" class="st0" d="M-887.6,1016.8v-46.9h29.8v6.9h-22.9v12.6h17.2v6.9h-17.2v13.7h22.9v6.8H-887.6z"/>
		<path id="XMLID_77_" class="st0" d="M-814.4,1016.8l-3.2-8.5h-21.9l-3.2,8.5h-7.2l17-46.9h8.7l17.1,46.9H-814.4z M-828.5,978
			l-8.5,23.3h17L-828.5,978z"/>
		<path id="XMLID_83_" class="st0" d="M-768.4,1016.8l-11.5-20h-12.5v20h-6.9v-46.9h24.9c3.7,0,6.8,1.3,9.5,4c2.7,2.7,4,5.8,4,9.5
			c0,3.3-1.1,6.2-3.3,8.7c-2.2,2.5-4.8,4.1-8,4.6l11.7,20.2H-768.4z M-767.7,983.3c0-1.8-0.7-3.3-2-4.7c-1.3-1.3-2.8-1.9-4.6-1.9
			h-18.1v13.2h18.1c1.8,0,3.3-0.6,4.6-1.9C-768.4,986.6-767.7,985.1-767.7,983.3z"/>
		<path id="XMLID_101_" class="st0" d="M-721,1016.8l-22.1-33.9v33.9h-6.9v-46.9h6.6l22.1,33.9v-33.9h6.9v46.9H-721z"/>
		<path id="XMLID_103_" class="st0" d="M-700.7,1016.8v-6.8h6.9v6.8H-700.7z"/>
		<path id="XMLID_105_" class="st0" d="M-639.2,984.5c-1.7-2.6-3.8-4.6-6.4-6.1c-2.6-1.5-5.4-2.3-8.4-2.3c-4.7,0-8.7,1.7-12.1,5.1
			c-3.4,3.4-5.1,7.4-5.1,12.1c0,4.7,1.7,8.7,5.1,12.1c3.4,3.4,7.4,5.1,12.1,5.1c3,0,5.8-0.8,8.4-2.4c2.6-1.5,4.7-3.5,6.3-6l5.8,3.8
			c-2.3,3.5-5.2,6.3-8.9,8.3c-3.6,2-7.5,3.1-11.6,3.1c-6.6,0-12.2-2.4-17-7.1c-4.7-4.7-7.1-10.4-7.1-17c0-6.5,2.4-12.2,7.1-16.9
			c4.7-4.7,10.4-7.1,17-7.1c4.1,0,8,1,11.8,3.1c3.6,2.1,6.5,4.9,8.8,8.4L-639.2,984.5z"/>
		<path id="XMLID_107_" class="st0" d="M-577.4,993.3c0,6.6-2.4,12.2-7.1,17c-4.7,4.7-10.4,7.1-17,7.1c-6.6,0-12.2-2.4-17-7.1
			c-4.7-4.7-7.1-10.4-7.1-17c0-6.5,2.4-12.2,7.1-16.9c4.7-4.7,10.4-7.1,17-7.1c6.6,0,12.2,2.4,17,7.1
			C-579.8,981.1-577.4,986.8-577.4,993.3z M-584.3,993.3c0-4.7-1.7-8.7-5.1-12.1c-3.4-3.4-7.4-5.1-12.1-5.1c-4.7,0-8.7,1.7-12.1,5.1
			c-3.4,3.4-5.1,7.4-5.1,12.1c0,4.7,1.7,8.7,5.1,12.1c3.4,3.4,7.4,5.1,12.1,5.1c4.7,0,8.7-1.7,12.1-5.1
			C-586,1002.1-584.3,998-584.3,993.3z"/>
		<path id="XMLID_110_" class="st0" d="M-537.6,1016.8l-22.1-33.9v33.9h-6.9v-46.9h6.6l22.1,33.9v-33.9h6.9v46.9H-537.6z"/>
		<path id="XMLID_112_" class="st0" d="M-488.3,1016.8l-22.1-33.9v33.9h-6.9v-46.9h6.6l22.1,33.9v-33.9h6.9v46.9H-488.3z"/>
		<path id="XMLID_114_" class="st0" d="M-467.9,1016.8v-46.9h29.8v6.9h-22.9v12.6h17.2v6.9h-17.2v13.7h22.9v6.8H-467.9z"/>
		<path id="XMLID_116_" class="st0" d="M-388.4,984.5c-1.7-2.6-3.8-4.6-6.4-6.1c-2.6-1.5-5.4-2.3-8.4-2.3c-4.7,0-8.7,1.7-12.1,5.1
			c-3.4,3.4-5.1,7.4-5.1,12.1c0,4.7,1.7,8.7,5.1,12.1c3.4,3.4,7.4,5.1,12.1,5.1c3,0,5.8-0.8,8.4-2.4c2.6-1.5,4.7-3.5,6.3-6l5.8,3.8
			c-2.3,3.5-5.2,6.3-8.9,8.3c-3.6,2-7.5,3.1-11.6,3.1c-6.6,0-12.2-2.4-17-7.1c-4.7-4.7-7.1-10.4-7.1-17c0-6.5,2.4-12.2,7.1-16.9
			c4.7-4.7,10.4-7.1,17-7.1c4.1,0,8,1,11.8,3.1c3.6,2.1,6.5,4.9,8.8,8.4L-388.4,984.5z"/>
		<path id="XMLID_118_" class="st0" d="M-355,976.7v40.1h-6.9v-40.1h-14.3v-6.9h35.5v6.9H-355z"/>
		<path id="XMLID_120_" class="st0" d="M-331.2,1016.8v-6.8h6.9v6.8H-331.2z"/>
	</g>
	<g id="XMLID_3_">
		<path id="XMLID_68_" class="st0" d="M-1264.6,927.4v-126h9.7v126H-1264.6z"/>
		<path id="XMLID_98_" class="st0" d="M-1233.2,844.3c0-2.5,0.2-6.3,2.2-8.8c2.5-3.2,6.5-3.6,9.4-3.6h34.2c9,0,16.4,1.3,22.1,7
			c2.9,2.9,7.4,9,7.4,22.1v66.3h-9.4v-63.9c0-8.1-0.9-13-4.1-17.1c-4-5-9.4-5.9-15.5-5.9h-33.9c-0.9,0-2,0-2.5,0.7
			c-0.5,0.7-0.5,2.2-0.5,2.9v83.4h-9.4V844.3z"/>
		<path id="XMLID_123_" class="st0" d="M-1104.5,927.4c-8.1,0-17.1,0.4-23-5.6c-5.9-5.8-6.5-15.1-6.5-26.5v-54.9h-13.1v-8.5h13.1
			v-30.6h9.4v30.6h26.3v8.5h-26.3v52.9c0,8.1-0.5,19.1,5.4,23.2c2.2,1.4,6.3,2.3,16.9,2.3h5v8.5H-1104.5z"/>
		<path id="XMLID_150_" class="st0" d="M-1081.8,841.3c9.4-9.2,23.2-10.4,35.3-10.4c12.1,0,25.9,1.3,35.3,10.4
			c10.4,10.3,11.9,27.2,11.9,37.8c0,20.7-5.8,32.4-11.9,38.5c-10.4,10.3-26.8,10.8-35.3,10.8c-8.5,0-24.8-0.5-35.3-10.8
			c-6.1-6.1-11.9-17.8-11.9-38.5C-1093.7,868.5-1092.2,851.5-1081.8,841.3z M-1075.8,910.8c7.6,8.3,19.6,9.2,29.4,9.2
			c9.7,0,21.8-0.9,29.4-9.2c7.9-8.6,7.7-23,7.7-30.8c0-8.3,0-23.4-7.6-31.9c-7.4-8.1-20.5-8.8-29.5-8.8c-9,0-22.1,0.7-29.5,8.8
			c-7.6,8.5-7.6,23.6-7.6,31.9C-1083.6,887.7-1083.8,902.1-1075.8,910.8z"/>
		<path id="XMLID_170_" class="st0" d="M-952.4,927.4l-4.2-115.9c0,0-10.8-0.5-49.8-11.5c0-3.4,0-8.6,0-8.6s35.2,10.1,57.6,10.1
			c22.4,0,57.6-24.8,57.6-24.8s0,2.7,0,8.6C-910.8,801.3-941,812-941,812l-4.2,115.3H-952.4z"/>
		<path id="XMLID_172_" class="st0" d="M-888.7,801.3h9.4v30.6h34.9c9.5,0,16.7,1.8,22.1,6.8c6.8,6.5,8.3,15.7,8.3,25.2v63.4h-9.4
			v-64.5c0-4.1-0.4-11.7-4.7-16.7c-4.5-5.2-10.3-5.8-15.5-5.8h-35.8v87h-9.4V801.3z"/>
		<path id="XMLID_174_" class="st0" d="M-766.6,927.4c-7.7,0-17.8-2-25.2-11.7c-7.4-9.5-7.7-21.6-7.7-35.7
			c0-13.3,0.7-29.5,12.8-39.6c8.6-7.2,20.3-8.5,29.9-8.5c6.7,0,16.6,0.9,24.3,5.4c3.8,2.3,15.3,10.3,15.3,30.3c0,2.7-0.2,9.2-4,12.4
			c-2.9,2.5-7.4,2.9-10.1,2.9h-58.2c-0.2,5.6,0.2,14.4,1.6,19.4c2.2,7.7,8.6,16.6,21.2,16.6h46.8v8.5H-766.6z M-731.4,874.4
			c4.1,0,4-5,4-6.3c0-9.4-3.2-15.7-6.5-19.4c-6.8-8.1-16.2-8.3-24.7-8.3c-9.5,0-19.8,0.4-26.5,11.5c-3.8,6.3-4.3,13.1-4.5,22.5
			H-731.4z"/>
		<path id="XMLID_177_" class="st0" d="M-643.9,927.4c-20.5,0-32.1-8.6-37.6-14.2c-10.8-10.8-14-25.7-14-47
			c0-17.1,1.3-36.4,13.5-49.5c6.5-7,18.7-15.3,38.7-15.3h48.3v8.6h-44.1c-9.4,0-26.1,1.1-36.6,14.6c-8.6,11.2-9.4,27.7-9.4,41.8
			c0,9.9,0,25.6,8.3,37.1c10.6,14.8,29,15.3,34.9,15.3h48.8v8.6H-643.9z"/>
		<path id="XMLID_179_" class="st0" d="M-579.3,801.3h9.4v126h-9.4V801.3z"/>
		<path id="XMLID_181_" class="st0" d="M-543.7,841.3c9.4-9.2,23.2-10.4,35.3-10.4c12.1,0,25.9,1.3,35.3,10.4
			c10.4,10.3,11.9,27.2,11.9,37.8c0,20.7-5.8,32.4-11.9,38.5c-10.4,10.3-26.8,10.8-35.3,10.8c-8.5,0-24.8-0.5-35.3-10.8
			c-6.1-6.1-11.9-17.8-11.9-38.5C-555.6,868.5-554.1,851.5-543.7,841.3z M-537.7,910.8c7.6,8.3,19.6,9.2,29.4,9.2
			c9.7,0,21.8-0.9,29.4-9.2c7.9-8.6,7.7-23,7.7-30.8c0-8.3,0-23.4-7.6-31.9c-7.4-8.1-20.5-8.8-29.5-8.8c-9,0-22.1,0.7-29.5,8.8
			c-7.6,8.5-7.6,23.6-7.6,31.9C-545.5,887.7-545.6,902.1-537.7,910.8z"/>
		<path id="XMLID_184_" class="st0" d="M-375.3,924.5c-3.6,2.9-9.2,2.9-14.4,2.9h-25.9c-10.1,0-17.1-0.9-23.2-6.5
			c-7.6-6.8-7.9-16.2-7.9-22.3v-66.6h9.4v63.7c0,9.9,1.8,14.4,3.8,16.9c4.1,5.6,11.2,6.3,18.9,6.3h26.5c2.3,0,4.9-0.5,6.3-2
			c1.8-1.8,1.8-4.5,1.8-5.9v-79h9.4v80.3C-370.8,916-371.3,921.2-375.3,924.5z"/>
		<path id="XMLID_186_" class="st0" d="M-280.9,923.9c-2.7,3.2-7.4,3.4-10.4,3.4h-29.7c-9.4,0-23.9-2.2-31-19.3
			c-3.8-9.2-4.3-20.5-4.3-31c0-10.4,0.5-21.2,7.2-31c8.6-12.6,21.8-14.2,32.4-14.2h29v-30.6h9.4v112.2
			C-278.4,917.1-279.1,921.6-280.9,923.9z M-318.9,840.4c-7,0-17.1,1.4-22.7,10.8c-3.2,5.4-4.7,13.9-4.7,27.4
			c0,17.3,1.8,23,2.7,25.6c4.9,13.1,17.1,14.8,24.7,14.8h23.9c1.1,0,4.3,0,5.8-1.4c1.1-1.3,1.4-4.7,1.4-6.7v-70.4H-318.9z"/>
		<ellipse id="XMLID_201_" class="st0" cx="-949.7" cy="778.5" rx="12.4" ry="14.8"/>
		<path id="XMLID_42_" class="st0" d="M-196.9,887.6c-3.4-3.2-8.4-5.2-14.1-7.2l-36.7-12.9c-8.3-3-9-7.9-9-14.1c0-3.1,0-8,2.6-10.8
			c2.2-2.3,6.2-3.6,9.2-3.6h50.2v-7H-244c-8.5,0-13.4,2.7-15.6,4.6c-5.9,4.9-6.7,11.5-6.7,16.8c0,4.4,0.5,10.7,4.9,15.7
			c2.5,2.9,6.8,5.4,12,7.2l37.6,12.9c10.4,3.6,11.2,9.1,11.2,14.5c0,13.7-5.8,15.2-10.1,15.2h-54.1v8h53.3c5.4,0,11.4-0.5,15.8-6.3
			c4.5-5.7,4.8-14.5,4.8-17.2C-190.8,896.7-192.9,891.4-196.9,887.6z"/>
		<path id="XMLID_169_" class="st0" d="M-289,795.9h8.6c-7.7-19-25-29.9-52.8-20.9c-7.5-14.4-21.5-25.3-38.8-28
			c-22.6-3.5-44.1,7.8-54.6,26.6c-2.8-0.7-6.4-1.7-8.8-2.1c-35.5-5.6-69.1,18.3-77.3,51.3h8.8c5.2-30,65.9-70.7,98.4-21.6
			c-2-9.4-6.3-17-12.4-24.9c15.4-33.7,68.9-28.3,81.1,8.4C-313,773.1-296.8,778.9-289,795.9z"/>
	</g>
</g>
</svg>
